<svg xmlns="http://www.w3.org/2000/svg" viewBox="0 0 240 180" role="img"><title>Scientific illustration of HIV-1</title><rect x="0" y="0" width="240" height="180" rx="14" fill="#f6f1e7"/><rect x="1" y="1" width="238" height="178" rx="13" fill="none" stroke="#dccfb4" stroke-width="1.5"/><circle cx="120.0" cy="90.0" r="34.0" fill="#be6a48" fill-opacity="0.85" stroke="#3a2e22" stroke-width="1.6"/><line x1="154.0" y1="90.0" x2="162.0" y2="90.0" stroke="#3a2e22" stroke-width="2"/><circle cx="162.0" cy="90.0" r="2.3" fill="#e7dcc7" fill-opacity="1" stroke="#3a2e22" stroke-width="1"/><line x1="150.6" y1="104.8" x2="157.8" y2="108.2" stroke="#3a2e22" stroke-width="2"/><circle cx="157.8" cy="108.2" r="2.3" fill="#e7dcc7" fill-opacity="1" stroke="#3a2e22" stroke-width="1"/><line x1="141.2" y1="116.6" x2="146.2" y2="122.8" stroke="#3a2e22" stroke-width="2"/><circle cx="146.2" cy="122.8" r="2.3" fill="#e7dcc7" fill-opacity="1" stroke="#3a2e22" stroke-width="1"/><line x1="127.6" y1="123.1" x2="129.3" y2="130.9" stroke="#3a2e22" stroke-width="2"/><circle cx="129.3" cy="130.9" r="2.3" fill="#e7dcc7" fill-opacity="1" stroke="#3a2e22" stroke-width="1"/><line x1="112.4" y1="123.1" x2="110.7" y2="130.9" stroke="#3a2e22" stroke-width="2"/><circle cx="110.7" cy="130.9" r="2.3" fill="#e7dcc7" fill-opacity="1" stroke="#3a2e22" stroke-width="1"/><line x1="98.8" y1="116.6" x2="93.8" y2="122.8" stroke="#3a2e22" stroke-width="2"/><circle cx="93.8" cy="122.8" r="2.3" fill="#e7dcc7" fill-opacity="1" stroke="#3a2e22" stroke-width="1"/><line x1="89.4" y1="104.8" x2="82.2" y2="108.2" stroke="#3a2e22" stroke-width="2"/><circle cx="82.2" cy="108.2" r="2.3" fill="#e7dcc7" fill-opacity="1" stroke="#3a2e22" stroke-width="1"/><line x1="86.0" y1="90.0" x2="78.0" y2="90.0" stroke="#3a2e22" stroke-width="2"/><circle cx="78.0" cy="90.0" r="2.3" fill="#e7dcc7" fill-opacity="1" stroke="#3a2e22" stroke-width="1"/><line x1="89.4" y1="75.2" x2="82.2" y2="71.8" stroke="#3a2e22" stroke-width="2"/><circle cx="82.2" cy="71.8" r="2.3" fill="#e7dcc7" fill-opacity="1" stroke="#3a2e22" stroke-width="1"/><line x1="98.8" y1="63.4" x2="93.8" y2="57.2" stroke="#3a2e22" stroke-width="2"/><circle cx="93.8" cy="57.2" r="2.3" fill="#e7dcc7" fill-opacity="1" stroke="#3a2e22" stroke-width="1"/><line x1="112.4" y1="56.9" x2="110.7" y2="49.1" stroke="#3a2e22" stroke-width="2"/><circle cx="110.7" cy="49.1" r="2.3" fill="#e7dcc7" fill-opacity="1" stroke="#3a2e22" stroke-width="1"/><line x1="127.6" y1="56.9" x2="129.3" y2="49.1" stroke="#3a2e22" stroke-width="2"/><circle cx="129.3" cy="49.1" r="2.3" fill="#e7dcc7" fill-opacity="1" stroke="#3a2e22" stroke-width="1"/><line x1="141.2" y1="63.4" x2="146.2" y2="57.2" stroke="#3a2e22" stroke-width="2"/><circle cx="146.2" cy="57.2" r="2.3" fill="#e7dcc7" fill-opacity="1" stroke="#3a2e22" stroke-width="1"/><line x1="150.6" y1="75.2" x2="157.8" y2="71.8" stroke="#3a2e22" stroke-width="2"/><circle cx="157.8" cy="71.8" r="2.3" fill="#e7dcc7" fill-opacity="1" stroke="#3a2e22" stroke-width="1"/><path d="M 107.0 74.0 L 133.0 74.0 L 127.0 108.0 L 113.0 108.0 Z" fill="#3a2e22" fill-opacity="0.85" stroke="#3a2e22" stroke-width="1.2" stroke-linejoin="round"/></svg>